<?xml version="1.0" encoding="utf-8"?>
<!-- Generator: Adobe Illustrator 24.0.0, SVG Export Plug-In . SVG Version: 6.00 Build 0)  -->
<svg version="1.1" id="Warstwa_1" xmlns="http://www.w3.org/2000/svg" xmlns:xlink="http://www.w3.org/1999/xlink" x="0px" y="0px"
	 viewBox="0 0 512 512" style="enable-background:new 0 0 512 512;" xml:space="preserve">
<style type="text/css">
	.st0{fill:#00CCFF;}
	.st1{fill:#FFFFFF;}
	.st2{fill:none;stroke:#00CCFF;stroke-width:5;stroke-miterlimit:10;}
</style>
<g>
	<rect x="176.5" y="0.5" class="st0" width="79" height="511"/>
	<path class="st0" d="M255,1v510h-78V1H255 M256,0h-80v512h80V0L256,0z"/>
</g>
<g>
	<rect x="97.5" y="46.5" transform="matrix(0.5 -0.866 0.866 0.5 -82.1883 205.6457)" class="st0" width="79" height="255"/>
	<path class="st0" d="M46.5,76.7l220,127l-39,67.6l-220-127L46.5,76.7 M46.1,75.4l-40,69.3l221.7,128l40-69.3L46.1,75.4L46.1,75.4z"
		/>
</g>
<g>
	<rect x="9.5" y="273.5" transform="matrix(0.866 -0.5 0.5 0.866 -138.1457 110.4345)" class="st0" width="255" height="79"/>
	<path class="st0" d="M227.5,215.7l39,67.5l-220,127l-39-67.5L227.5,215.7 M227.9,214.4L6.1,342.4l40,69.3l221.7-128L227.9,214.4
		L227.9,214.4z"/>
</g>
<g>
	<rect x="257.5" y="56.5" class="st1" width="225" height="381"/>
	<path class="st0" d="M480,59v376H260V59H480 M485,54H255v386h230V54L485,54z"/>
</g>
<line class="st2" x1="258.5" y1="82.5" x2="480.5" y2="82.5"/>
<line class="st2" x1="260.5" y1="124.5" x2="407.5" y2="124.5"/>
<line class="st2" x1="260.5" y1="163.5" x2="370.5" y2="163.5"/>
<line class="st2" x1="260.5" y1="209.5" x2="342.5" y2="209.5"/>
<line class="st2" x1="260.5" y1="255.5" x2="308.5" y2="255.5"/>
<line class="st2" x1="261" y1="289.5" x2="289" y2="289.5"/>
<path class="st2" d="M441.5,113.5c-7.7,11.3-15.3,22.6-23,34c-40.9,61-79.9,121.7-117,182"/>
<line class="st2" x1="460.5" y1="120.5" x2="327" y2="329.8"/>
<line class="st2" x1="327.5" y1="329.5" x2="297.5" y2="357.5"/>
<line class="st2" x1="301.5" y1="329.5" x2="297.5" y2="357.5"/>
<path class="st2" d="M534.5,281.5"/>
<path class="st2" d="M438,153.5c-2.6,1.5-5.7,1.8-8.6,1.3s-5.6-1.8-8.3-3.3c-0.9-0.5-1.8-1.1-2.5-2c-0.6-0.9-0.8-2.2-0.3-3.1"/>
<path class="st2" d="M302.9,329.6c3,3,7.3,4.6,11.6,4.3c3.5-0.2,6.8-1.7,10-3.1"/>
<ellipse transform="matrix(0.3511 -0.9363 0.9363 0.3511 184.5475 497.9734)" class="st2" cx="451.6" cy="115.8" rx="5.5" ry="10.6"/>
</svg>
